<mxfile host="Electron" modified="2024-05-02T20:32:58.664Z" agent="Mozilla/5.0 (Windows NT 10.0; Win64; x64) AppleWebKit/537.36 (KHTML, like Gecko) draw.io/24.0.4 Chrome/120.0.6099.109 Electron/28.1.0 Safari/537.36" etag="Gt-1s8YL-WTYB8DaiUAW" version="24.0.4" type="device">
  <diagram name="PÃ¡gina-1" id="rnQ-FR-HW7EkudksvXDS">
    <mxGraphModel dx="858" dy="526" grid="1" gridSize="10" guides="1" tooltips="1" connect="1" arrows="1" fold="1" page="1" pageScale="1" pageWidth="827" pageHeight="1169" math="0" shadow="0">
      <root>
        <mxCell id="0" />
        <mxCell id="1" parent="0" />
        <mxCell id="Zq9EVmktJtV4o39hRyaE-16" style="edgeStyle=orthogonalEdgeStyle;rounded=0;orthogonalLoop=1;jettySize=auto;html=1;labelBackgroundColor=none;strokeColor=#028090;fontColor=default;" edge="1" parent="1" source="elaqadn__Zsb7Rm-6npa-1" target="Zq9EVmktJtV4o39hRyaE-7">
          <mxGeometry relative="1" as="geometry">
            <Array as="points">
              <mxPoint x="10" y="135" />
            </Array>
          </mxGeometry>
        </mxCell>
        <mxCell id="elaqadn__Zsb7Rm-6npa-1" value="Mensajero" style="swimlane;fontStyle=1;align=center;verticalAlign=top;childLayout=stackLayout;horizontal=1;startSize=26;horizontalStack=0;resizeParent=1;resizeParentMax=0;resizeLast=0;collapsible=1;marginBottom=0;whiteSpace=wrap;html=1;fillColor=#F45B69;fontColor=#E4FDE1;strokeColor=#028090;rounded=1;labelBackgroundColor=none;swimlaneFillColor=default;" parent="1" vertex="1">
          <mxGeometry x="10" y="370" width="290" height="70" as="geometry" />
        </mxCell>
        <mxCell id="elaqadn__Zsb7Rm-6npa-3" value="" style="line;strokeWidth=1;fillColor=none;align=left;verticalAlign=middle;spacingTop=-1;spacingLeft=3;spacingRight=3;rotatable=0;labelPosition=right;points=[];portConstraint=eastwest;strokeColor=#028090;rounded=1;labelBackgroundColor=none;fontColor=#E4FDE1;" parent="elaqadn__Zsb7Rm-6npa-1" vertex="1">
          <mxGeometry y="26" width="290" height="8" as="geometry" />
        </mxCell>
        <mxCell id="elaqadn__Zsb7Rm-6npa-4" value="+enviar(mensaje:string)&lt;br&gt;&lt;div style=&quot;background-color:#2f2f2f;padding:0px 0px 0px 2px;&quot;&gt;&lt;div style=&quot;color: rgb(170, 170, 170); font-family: Consolas; font-size: 10pt; white-space: pre;&quot;&gt;&lt;p style=&quot;background-color:#373737;margin:0;&quot;&gt;&lt;span style=&quot;color:#d9e8f7;&quot;&gt;&lt;/span&gt;&lt;/p&gt;&lt;/div&gt;&lt;/div&gt;" style="text;strokeColor=none;fillColor=none;align=left;verticalAlign=top;spacingLeft=4;spacingRight=4;overflow=hidden;rotatable=0;points=[[0,0.5],[1,0.5]];portConstraint=eastwest;whiteSpace=wrap;html=1;rounded=1;labelBackgroundColor=none;fontColor=#E4FDE1;" parent="elaqadn__Zsb7Rm-6npa-1" vertex="1">
          <mxGeometry y="34" width="290" height="36" as="geometry" />
        </mxCell>
        <mxCell id="elaqadn__Zsb7Rm-6npa-5" value="&amp;lt;&amp;lt;interface&amp;gt;&amp;gt; Encriptador" style="swimlane;fontStyle=0;childLayout=stackLayout;horizontal=1;startSize=26;fillColor=#F45B69;horizontalStack=0;resizeParent=1;resizeParentMax=0;resizeLast=0;collapsible=1;marginBottom=0;whiteSpace=wrap;html=1;fontColor=#E4FDE1;strokeColor=#028090;rounded=1;labelBackgroundColor=none;swimlaneFillColor=default;" parent="1" vertex="1">
          <mxGeometry x="460" y="150" width="260" height="70" as="geometry" />
        </mxCell>
        <mxCell id="G7_AeDBWMxpFMUD4EurX-3" value="+encriptar(mensaje : String) : String&lt;div&gt;&lt;br&gt;&lt;/div&gt;&lt;div style=&quot;background-color:#2f2f2f;padding:0px 0px 0px 2px;&quot;&gt;&lt;div style=&quot;color: rgb(170, 170, 170); font-family: Consolas; font-size: 10pt; white-space: pre;&quot;&gt;&lt;p style=&quot;background-color:#373737;margin:0;&quot;&gt;&lt;span style=&quot;color:#d9e8f7;&quot;&gt;&lt;/span&gt;&lt;/p&gt;&lt;/div&gt;&lt;/div&gt;" style="text;strokeColor=none;fillColor=none;align=left;verticalAlign=top;spacingLeft=4;spacingRight=4;overflow=hidden;rotatable=0;points=[[0,0.5],[1,0.5]];portConstraint=eastwest;whiteSpace=wrap;html=1;rounded=1;labelBackgroundColor=none;fontColor=#E4FDE1;" parent="elaqadn__Zsb7Rm-6npa-5" vertex="1">
          <mxGeometry y="26" width="260" height="44" as="geometry" />
        </mxCell>
        <mxCell id="elaqadn__Zsb7Rm-6npa-18" value="EncriptadorRSA" style="swimlane;fontStyle=0;childLayout=stackLayout;horizontal=1;startSize=26;fillColor=#F45B69;horizontalStack=0;resizeParent=1;resizeParentMax=0;resizeLast=0;collapsible=1;marginBottom=0;whiteSpace=wrap;html=1;fontColor=#E4FDE1;strokeColor=#028090;rounded=1;labelBackgroundColor=none;swimlaneFillColor=default;" parent="1" vertex="1">
          <mxGeometry x="330" y="310" width="220" height="100" as="geometry" />
        </mxCell>
        <mxCell id="elaqadn__Zsb7Rm-6npa-34" value="+&amp;lt;&amp;lt;Create&amp;gt;&amp;gt;&amp;nbsp;&lt;span style=&quot;text-align: center;&quot;&gt;InscripcionProvisoria&lt;/span&gt;( excursion : Excursion)&lt;div&gt;+ anotarse (usuario : Usuario)&lt;/div&gt;&lt;div&gt;+ getInfo (): String&lt;/div&gt;&lt;div&gt;&lt;br&gt;&lt;/div&gt;&lt;div style=&quot;background-color:#2f2f2f;padding:0px 0px 0px 2px;&quot;&gt;&lt;div style=&quot;color: rgb(170, 170, 170); font-family: Consolas; font-size: 10pt; white-space: pre;&quot;&gt;&lt;p style=&quot;background-color:#373737;margin:0;&quot;&gt;&lt;span style=&quot;color:#d9e8f7;&quot;&gt;&lt;/span&gt;&lt;/p&gt;&lt;/div&gt;&lt;/div&gt;" style="text;strokeColor=none;fillColor=none;align=left;verticalAlign=top;spacingLeft=4;spacingRight=4;overflow=hidden;rotatable=0;points=[[0,0.5],[1,0.5]];portConstraint=eastwest;whiteSpace=wrap;html=1;rounded=1;labelBackgroundColor=none;fontColor=#E4FDE1;" parent="elaqadn__Zsb7Rm-6npa-18" vertex="1">
          <mxGeometry y="26" width="220" height="74" as="geometry" />
        </mxCell>
        <mxCell id="elaqadn__Zsb7Rm-6npa-30" value="EncriptadorRC4" style="swimlane;fontStyle=0;childLayout=stackLayout;horizontal=1;startSize=26;fillColor=#F45B69;horizontalStack=0;resizeParent=1;resizeParentMax=0;resizeLast=0;collapsible=1;marginBottom=0;whiteSpace=wrap;html=1;fontColor=#E4FDE1;strokeColor=#028090;rounded=1;labelBackgroundColor=none;swimlaneFillColor=default;" parent="1" vertex="1">
          <mxGeometry x="630" y="310" width="210" height="100" as="geometry" />
        </mxCell>
        <mxCell id="G7_AeDBWMxpFMUD4EurX-1" value="+&amp;lt;&amp;lt;Create&amp;gt;&amp;gt;&amp;nbsp;&lt;span style=&quot;text-align: center;&quot;&gt;InscripcionDefinitiva&lt;/span&gt;( excursion : Excursion)&lt;div&gt;+ anotarse (usuario : Usuario)&lt;/div&gt;&lt;div&gt;+ getInfo (): String&lt;/div&gt;&lt;div&gt;&lt;br&gt;&lt;/div&gt;&lt;div style=&quot;background-color:#2f2f2f;padding:0px 0px 0px 2px;&quot;&gt;&lt;div style=&quot;color: rgb(170, 170, 170); font-family: Consolas; font-size: 10pt; white-space: pre;&quot;&gt;&lt;p style=&quot;background-color:#373737;margin:0;&quot;&gt;&lt;span style=&quot;color:#d9e8f7;&quot;&gt;&lt;/span&gt;&lt;/p&gt;&lt;/div&gt;&lt;/div&gt;" style="text;strokeColor=none;fillColor=none;align=left;verticalAlign=top;spacingLeft=4;spacingRight=4;overflow=hidden;rotatable=0;points=[[0,0.5],[1,0.5]];portConstraint=eastwest;whiteSpace=wrap;html=1;rounded=1;labelBackgroundColor=none;fontColor=#E4FDE1;" parent="elaqadn__Zsb7Rm-6npa-30" vertex="1">
          <mxGeometry y="26" width="210" height="74" as="geometry" />
        </mxCell>
        <mxCell id="elaqadn__Zsb7Rm-6npa-45" value="" style="endArrow=block;endSize=16;endFill=0;html=1;rounded=1;labelBackgroundColor=none;strokeColor=#028090;fontColor=default;" parent="1" source="elaqadn__Zsb7Rm-6npa-18" target="G7_AeDBWMxpFMUD4EurX-3" edge="1">
          <mxGeometry x="0.1111" width="160" relative="1" as="geometry">
            <mxPoint x="580" y="370" as="sourcePoint" />
            <mxPoint x="720" y="380" as="targetPoint" />
            <mxPoint as="offset" />
          </mxGeometry>
        </mxCell>
        <mxCell id="elaqadn__Zsb7Rm-6npa-64" value="STRATEGY" style="text;html=1;align=center;verticalAlign=middle;resizable=0;points=[];autosize=1;strokeColor=#006EAF;fillColor=#1ba1e2;rounded=1;labelBackgroundColor=none;shadow=0;textShadow=0;glass=0;fontColor=#ffffff;" parent="1" vertex="1">
          <mxGeometry x="625" y="120" width="90" height="30" as="geometry" />
        </mxCell>
        <mxCell id="elaqadn__Zsb7Rm-6npa-68" value="Context" style="text;html=1;align=center;verticalAlign=middle;resizable=0;points=[];autosize=1;strokeColor=#006EAF;fillColor=#1ba1e2;rounded=1;labelBackgroundColor=none;shadow=0;textShadow=0;glass=0;fontColor=#ffffff;" parent="1" vertex="1">
          <mxGeometry x="160" y="210" width="60" height="30" as="geometry" />
        </mxCell>
        <mxCell id="elaqadn__Zsb7Rm-6npa-79" value="" style="endArrow=block;endSize=16;endFill=0;html=1;rounded=1;labelBackgroundColor=none;strokeColor=#028090;fontColor=default;" parent="1" source="elaqadn__Zsb7Rm-6npa-30" edge="1" target="G7_AeDBWMxpFMUD4EurX-3">
          <mxGeometry x="0.1111" width="160" relative="1" as="geometry">
            <mxPoint x="456" y="330" as="sourcePoint" />
            <mxPoint x="619.0136054421769" y="250" as="targetPoint" />
            <mxPoint as="offset" />
          </mxGeometry>
        </mxCell>
        <mxCell id="elaqadn__Zsb7Rm-6npa-80" value="EncriptadorBlowfish" style="swimlane;fontStyle=0;childLayout=stackLayout;horizontal=1;startSize=26;fillColor=#F45B69;horizontalStack=0;resizeParent=1;resizeParentMax=0;resizeLast=0;collapsible=1;marginBottom=0;whiteSpace=wrap;html=1;fontColor=#E4FDE1;strokeColor=#028090;rounded=1;labelBackgroundColor=none;swimlaneFillColor=default;" parent="1" vertex="1">
          <mxGeometry x="480" y="430" width="220" height="100" as="geometry" />
        </mxCell>
        <mxCell id="G7_AeDBWMxpFMUD4EurX-2" value="+&amp;lt;&amp;lt;Create&amp;gt;&amp;gt;&amp;nbsp;&lt;span style=&quot;text-align: center;&quot;&gt;InscripcionCompleta&lt;/span&gt;( excursion : Excursion)&lt;div&gt;+ anotarse (usuario : Usuario)&lt;/div&gt;&lt;div&gt;+ getInfo (): String&lt;/div&gt;&lt;div&gt;&lt;br&gt;&lt;/div&gt;&lt;div style=&quot;background-color:#2f2f2f;padding:0px 0px 0px 2px;&quot;&gt;&lt;div style=&quot;color: rgb(170, 170, 170); font-family: Consolas; font-size: 10pt; white-space: pre;&quot;&gt;&lt;p style=&quot;background-color:#373737;margin:0;&quot;&gt;&lt;span style=&quot;color:#d9e8f7;&quot;&gt;&lt;/span&gt;&lt;/p&gt;&lt;/div&gt;&lt;/div&gt;" style="text;strokeColor=none;fillColor=none;align=left;verticalAlign=top;spacingLeft=4;spacingRight=4;overflow=hidden;rotatable=0;points=[[0,0.5],[1,0.5]];portConstraint=eastwest;whiteSpace=wrap;html=1;rounded=1;labelBackgroundColor=none;fontColor=#E4FDE1;" parent="elaqadn__Zsb7Rm-6npa-80" vertex="1">
          <mxGeometry y="26" width="220" height="74" as="geometry" />
        </mxCell>
        <mxCell id="elaqadn__Zsb7Rm-6npa-82" value="" style="endArrow=block;endSize=16;endFill=0;html=1;rounded=1;labelBackgroundColor=none;strokeColor=#028090;fontColor=default;" parent="1" source="elaqadn__Zsb7Rm-6npa-80" edge="1" target="elaqadn__Zsb7Rm-6npa-5">
          <mxGeometry x="0.1111" width="160" relative="1" as="geometry">
            <mxPoint x="580" y="460" as="sourcePoint" />
            <mxPoint x="585.5685618729096" y="250" as="targetPoint" />
            <mxPoint as="offset" />
          </mxGeometry>
        </mxCell>
        <mxCell id="Zq9EVmktJtV4o39hRyaE-2" value="CONCRETE STRATEGY" style="text;html=1;align=center;verticalAlign=middle;resizable=0;points=[];autosize=1;strokeColor=#006EAF;fillColor=#1ba1e2;rounded=1;labelBackgroundColor=none;shadow=0;textShadow=0;glass=0;fontColor=#ffffff;" vertex="1" parent="1">
          <mxGeometry x="320" y="530" width="160" height="30" as="geometry" />
        </mxCell>
        <mxCell id="Zq9EVmktJtV4o39hRyaE-3" value="1" style="endArrow=open;html=1;endSize=12;startArrow=diamondThin;startSize=14;startFill=0;edgeStyle=orthogonalEdgeStyle;align=left;verticalAlign=bottom;rounded=0;labelBackgroundColor=none;strokeColor=#028090;fontColor=default;" edge="1" parent="1" source="Zq9EVmktJtV4o39hRyaE-12" target="elaqadn__Zsb7Rm-6npa-5">
          <mxGeometry x="-1" y="3" relative="1" as="geometry">
            <mxPoint x="350" y="140" as="sourcePoint" />
            <mxPoint x="500" y="170" as="targetPoint" />
            <Array as="points">
              <mxPoint x="290" y="275" />
              <mxPoint x="290" y="200" />
            </Array>
          </mxGeometry>
        </mxCell>
        <mxCell id="Zq9EVmktJtV4o39hRyaE-6" value="Client" style="text;html=1;align=center;verticalAlign=middle;resizable=0;points=[];autosize=1;strokeColor=#006EAF;fillColor=#1ba1e2;rounded=1;labelBackgroundColor=none;shadow=0;textShadow=0;glass=0;fontColor=#ffffff;" vertex="1" parent="1">
          <mxGeometry x="15" y="340" width="50" height="30" as="geometry" />
        </mxCell>
        <mxCell id="Zq9EVmktJtV4o39hRyaE-7" value="conexion" style="swimlane;fontStyle=1;align=center;verticalAlign=top;childLayout=stackLayout;horizontal=1;startSize=26;horizontalStack=0;resizeParent=1;resizeParentMax=0;resizeLast=0;collapsible=1;marginBottom=0;whiteSpace=wrap;html=1;labelBackgroundColor=none;fillColor=#F45B69;strokeColor=#028090;fontColor=#E4FDE1;" vertex="1" parent="1">
          <mxGeometry x="65" y="100" width="160" height="70" as="geometry" />
        </mxCell>
        <mxCell id="Zq9EVmktJtV4o39hRyaE-9" value="" style="line;strokeWidth=1;fillColor=none;align=left;verticalAlign=middle;spacingTop=-1;spacingLeft=3;spacingRight=3;rotatable=0;labelPosition=right;points=[];portConstraint=eastwest;strokeColor=#028090;labelBackgroundColor=none;fontColor=#E4FDE1;" vertex="1" parent="Zq9EVmktJtV4o39hRyaE-7">
          <mxGeometry y="26" width="160" height="8" as="geometry" />
        </mxCell>
        <mxCell id="Zq9EVmktJtV4o39hRyaE-11" value="+enviar(mensaje:string)&lt;br&gt;&lt;div style=&quot;background-color:#2f2f2f;padding:0px 0px 0px 2px;&quot;&gt;&lt;div style=&quot;color: rgb(170, 170, 170); font-family: Consolas; font-size: 10pt; white-space: pre;&quot;&gt;&lt;p style=&quot;background-color:#373737;margin:0;&quot;&gt;&lt;span style=&quot;color:#d9e8f7;&quot;&gt;&lt;/span&gt;&lt;/p&gt;&lt;/div&gt;&lt;/div&gt;" style="text;strokeColor=none;fillColor=none;align=left;verticalAlign=top;spacingLeft=4;spacingRight=4;overflow=hidden;rotatable=0;points=[[0,0.5],[1,0.5]];portConstraint=eastwest;whiteSpace=wrap;html=1;rounded=1;labelBackgroundColor=none;fontColor=#E4FDE1;" vertex="1" parent="Zq9EVmktJtV4o39hRyaE-7">
          <mxGeometry y="34" width="160" height="36" as="geometry" />
        </mxCell>
        <mxCell id="Zq9EVmktJtV4o39hRyaE-12" value="ConexionSegura" style="swimlane;fontStyle=1;align=center;verticalAlign=top;childLayout=stackLayout;horizontal=1;startSize=26;horizontalStack=0;resizeParent=1;resizeParentMax=0;resizeLast=0;collapsible=1;marginBottom=0;whiteSpace=wrap;html=1;labelBackgroundColor=none;fillColor=#F45B69;strokeColor=#028090;fontColor=#E4FDE1;" vertex="1" parent="1">
          <mxGeometry x="65" y="240" width="160" height="70" as="geometry" />
        </mxCell>
        <mxCell id="Zq9EVmktJtV4o39hRyaE-13" value="" style="line;strokeWidth=1;fillColor=none;align=left;verticalAlign=middle;spacingTop=-1;spacingLeft=3;spacingRight=3;rotatable=0;labelPosition=right;points=[];portConstraint=eastwest;strokeColor=#028090;labelBackgroundColor=none;fontColor=#E4FDE1;" vertex="1" parent="Zq9EVmktJtV4o39hRyaE-12">
          <mxGeometry y="26" width="160" height="8" as="geometry" />
        </mxCell>
        <mxCell id="Zq9EVmktJtV4o39hRyaE-14" value="+enviar(mensaje:string)&lt;br&gt;&lt;div style=&quot;background-color:#2f2f2f;padding:0px 0px 0px 2px;&quot;&gt;&lt;div style=&quot;color: rgb(170, 170, 170); font-family: Consolas; font-size: 10pt; white-space: pre;&quot;&gt;&lt;p style=&quot;background-color:#373737;margin:0;&quot;&gt;&lt;span style=&quot;color:#d9e8f7;&quot;&gt;&lt;/span&gt;&lt;/p&gt;&lt;/div&gt;&lt;/div&gt;" style="text;strokeColor=none;fillColor=none;align=left;verticalAlign=top;spacingLeft=4;spacingRight=4;overflow=hidden;rotatable=0;points=[[0,0.5],[1,0.5]];portConstraint=eastwest;whiteSpace=wrap;html=1;rounded=1;labelBackgroundColor=none;fontColor=#E4FDE1;" vertex="1" parent="Zq9EVmktJtV4o39hRyaE-12">
          <mxGeometry y="34" width="160" height="36" as="geometry" />
        </mxCell>
        <mxCell id="Zq9EVmktJtV4o39hRyaE-15" value="" style="endArrow=block;endSize=16;endFill=0;html=1;rounded=1;labelBackgroundColor=none;strokeColor=#028090;fontColor=default;" edge="1" parent="1" source="Zq9EVmktJtV4o39hRyaE-12" target="Zq9EVmktJtV4o39hRyaE-7">
          <mxGeometry x="0.1111" width="160" relative="1" as="geometry">
            <mxPoint x="146.72000000000003" y="310" as="sourcePoint" />
            <mxPoint x="143.28856187290967" y="120" as="targetPoint" />
            <mxPoint as="offset" />
          </mxGeometry>
        </mxCell>
        <mxCell id="Zq9EVmktJtV4o39hRyaE-17" value="-encriptador" style="text;html=1;align=center;verticalAlign=middle;resizable=0;points=[];autosize=1;strokeColor=none;fillColor=none;labelBackgroundColor=none;fontColor=#E4FDE1;" vertex="1" parent="1">
          <mxGeometry x="305" y="200" width="90" height="30" as="geometry" />
        </mxCell>
        <mxCell id="Zq9EVmktJtV4o39hRyaE-18" value="" style="endArrow=none;dashed=1;html=1;dashPattern=1 3;strokeWidth=2;rounded=0;strokeColor=#028090;fontColor=#E4FDE1;fillColor=#F45B69;" edge="1" parent="1">
          <mxGeometry width="50" height="50" relative="1" as="geometry">
            <mxPoint x="320" y="290" as="sourcePoint" />
            <mxPoint x="852" y="290" as="targetPoint" />
          </mxGeometry>
        </mxCell>
        <mxCell id="Zq9EVmktJtV4o39hRyaE-19" value="" style="endArrow=none;dashed=1;html=1;dashPattern=1 3;strokeWidth=2;rounded=0;strokeColor=#028090;fontColor=#E4FDE1;fillColor=#F45B69;" edge="1" parent="1">
          <mxGeometry width="50" height="50" relative="1" as="geometry">
            <mxPoint x="320" y="560" as="sourcePoint" />
            <mxPoint x="852" y="560" as="targetPoint" />
          </mxGeometry>
        </mxCell>
        <mxCell id="Zq9EVmktJtV4o39hRyaE-20" value="" style="endArrow=none;dashed=1;html=1;dashPattern=1 3;strokeWidth=2;rounded=0;strokeColor=#028090;fontColor=#E4FDE1;fillColor=#F45B69;" edge="1" parent="1">
          <mxGeometry width="50" height="50" relative="1" as="geometry">
            <mxPoint x="320" y="290" as="sourcePoint" />
            <mxPoint x="320" y="560" as="targetPoint" />
          </mxGeometry>
        </mxCell>
        <mxCell id="Zq9EVmktJtV4o39hRyaE-21" value="" style="endArrow=none;dashed=1;html=1;dashPattern=1 3;strokeWidth=2;rounded=0;strokeColor=#028090;fontColor=#E4FDE1;fillColor=#F45B69;" edge="1" parent="1">
          <mxGeometry width="50" height="50" relative="1" as="geometry">
            <mxPoint x="850" y="290" as="sourcePoint" />
            <mxPoint x="850" y="560" as="targetPoint" />
          </mxGeometry>
        </mxCell>
      </root>
    </mxGraphModel>
  </diagram>
</mxfile>
